{"title":"Wall-E(2008)MPEG-4[DaScubaDude]","magnet":"magnet:?xt=urn:btih:4eaa1e25662bbc0bd652bf3a107ceaf2042d9f58&dn=Wall-E%282008%29MPEG-4%5BDaScubaDude%5D&tr=udp%3A%2F%2Ftracker.leechers-paradise.org%3A6969&tr=udp%3A%2F%2Fzer0day.ch%3A1337&tr=udp%3A%2F%2Fopen.demonii.com%3A1337&tr=udp%3A%2F%2Ftracker.coppersurfer.tk%3A6969&tr=udp%3A%2F%2Fexodus.desync.com%3A6969","uploader":"dascuba","categoryP":"video","categoryS":"movies","size":"975780702","seeders":"2","leechers":"13","description":"WALL&#xB7;E (2008)\r\nG | 1h 38min | Animation, Adventure, Family | 27 June 2008 (USA)\r\nGeneral\r\nComplete name                            : Wall EWALL_E_Title30.mp4\r\nFormat                                   : MPEG-4\r\nFormat profile                           : Base Media\r\nCodec ID                                 : isom (isom/iso2/avc1/mp41)\r\nFile size                                : 931 MiB\r\nDuration                                 : 1 h 38 min\r\nOverall bit rate                         : 1 325 kb/s\r\nMovie name                               : WALL_E\r\nGenre                                    : Science_Fiction\r\nWriting application                      : Lavf54.6.100\r\n\r\nVideo\r\nID                                       : 1\r\nFormat                                   : AVC\r\nFormat/Info                              : Advanced Video Codec\r\nFormat profile                           : <a class=\"__cf_email__\" href=\"/cdn-cgi/l/email-protection\" data-cfemail=\"5517342630393c3b30151966\">[email&#xA0;protected]</a><script data-cfhash=\"f9e31\" type=\"text/javascript\">/* <![CDATA[ */!function(t,e,r,n,c,a,p){try{t=document.currentScript||function(){for(t=document.getElementsByTagName('script'),e=t.length;e--;)if(t[e].getAttribute('data-cfhash'))return t[e]}();if(t&&(c=t.previousSibling)){p=t.parentNode;if(a=c.getAttribute('data-cfemail')){for(e='',r='0x'+a.substr(0,2)|0,n=2;a.length-n;n+=2)e+='%'+('0'+('0x'+a.substr(n,2)^r).toString(16)).slice(-2);p.replaceChild(document.createTextNode(decodeURIComponent(e)),c)}p.removeChild(t)}}catch(u){}}()/* ]]> */</script>\r\nFormat settings, CABAC                   : No\r\nFormat settings, ReFrames                : 6 frames\r\nCodec ID                                 : avc1\r\nCodec ID/Info                            : Advanced Video Coding\r\nDuration                                 : 1 h 38 min\r\nBit rate                                 : 1 190 kb/s\r\nWidth                                    : 720 pixels\r\nHeight                                   : 404 pixels\r\nDisplay aspect ratio                     : 16:9\r\nFrame rate mode                          : Constant\r\nFrame rate                               : 29.970 (30000/1001) FPS\r\nColor space                              : YUV\r\nChroma subsampling                       : 4:2:0\r\nBit depth                                : 8 bits\r\nScan type                                : Progressive\r\nBits/(Pixel*Frame)                       : 0.136\r\nStream size                              : 836 MiB (90%)\r\n\r\nAudio\r\nID                                       : 2\r\nFormat                                   : AAC\r\nFormat/Info                              : Advanced Audio Codec\r\nFormat profile                           : LC\r\nCodec ID                                 : 40\r\nDuration                                 : 1 h 38 min\r\nBit rate mode                            : Constant\r\nBit rate                                 : 128 kb/s\r\nChannel(s)                               : 2 channels\r\nChannel positions                        : Front: L R\r\nSampling rate                            : 44.1 kHz\r\nFrame rate                               : 43.066 FPS (1024 spf)\r\nCompression mode                         : Lossy\r\nStream size                              : 89.9 MiB (10%)\r\nDefault                                  : Yes\r\nAlternate group                          : 1","last_updated":"2017-08-02T12:03:59.214Z","parsed":{"xt":"urn:btih:4eaa1e25662bbc0bd652bf3a107ceaf2042d9f58","dn":"Wall-E(2008)MPEG-4[DaScubaDude]","tr":["udp://exodus.desync.com:6969","udp://open.demonii.com:1337","udp://tracker.coppersurfer.tk:6969","udp://tracker.leechers-paradise.org:6969","udp://zer0day.ch:1337"],"infoHash":"4eaa1e25662bbc0bd652bf3a107ceaf2042d9f58","infoHashBuffer":{"type":"Buffer","data":[78,170,30,37,102,43,188,11,214,82,191,58,16,124,234,242,4,45,159,88]},"name":"Wall-E(2008)MPEG-4[DaScubaDude]","announce":["udp://exodus.desync.com:6969","udp://open.demonii.com:1337","udp://tracker.coppersurfer.tk:6969","udp://tracker.leechers-paradise.org:6969","udp://zer0day.ch:1337"],"urlList":[]}}